<svg xmlns="http://www.w3.org/2000/svg" xmlns:xlink="http://www.w3.org/1999/xlink" viewBox="0 0 62.2 77.3"><defs><style>.cls-1,.cls-5,.cls-9{fill:none;}.cls-10,.cls-2{fill:#281d21;}.cls-3{isolation:isolate;}.cls-4{fill:#95bca7;}.cls-12,.cls-5,.cls-7{stroke:#281d21;stroke-linecap:round;stroke-linejoin:round;}.cls-12,.cls-5,.cls-7,.cls-9{stroke-width:1.5px;}.cls-6{clip-path:url(#clip-path);}.cls-7{fill:#f2f2f2;}.cls-8{opacity:0.2;mix-blend-mode:multiply;fill:url(#Nueva_muestra_de_motivo_2);}.cls-9{stroke:#779e88;stroke-miterlimit:10;}.cls-10{fill-rule:evenodd;}.cls-11{clip-path:url(#clip-path-2);}.cls-12{fill:#cb9d62;}</style><clipPath id="clip-path"><path class="cls-1" d="M31.1,14.4A29.3,29.3,0,1,0,60.3,43.7,29.3,29.3,0,0,0,31.1,14.4Z"/></clipPath><pattern id="Nueva_muestra_de_motivo_2" data-name="Nueva muestra de motivo 2" width="4" height="4" patternTransform="translate(0 24.9)" patternUnits="userSpaceOnUse" viewBox="0 0 4 4"><rect class="cls-1" width="4" height="4"/><rect class="cls-2" width="2" height="2"/><rect class="cls-2" x="2" y="2" width="2" height="2"/></pattern><clipPath id="clip-path-2"><path class="cls-1" d="M49,26A18,18,0,0,0,31,7.9h0A18.1,18.1,0,0,0,13,26V39.8a18.1,18.1,0,0,0,18,18h0a18,18,0,0,0,18-18Z"/></clipPath></defs><title>Asset 1</title><g class="cls-3"><g id="Layer_2" data-name="Layer 2"><g id="Information_icon" data-name="Information icon"><g id="man"><path class="cls-4" d="M31.1,13.3A30.4,30.4,0,1,0,61.5,43.7,30.3,30.3,0,0,0,31.1,13.3Z"/><path class="cls-5" d="M31.1,13.3A30.4,30.4,0,1,0,61.5,43.7,30.3,30.3,0,0,0,31.1,13.3Z"/><g class="cls-6"><polygon class="cls-7" points="54 76.6 7.2 76.6 24.1 64.3 37.1 64.3 54 76.6"/><polygon class="cls-8" points="54 76.5 7.2 76.5 24.1 64.3 37.1 64.3 54 76.5"/><line class="cls-9" x1="0.7" y1="43.5" x2="61.3" y2="43.5"/><line class="cls-9" x1="0.7" y1="52" x2="61.3" y2="52"/><line class="cls-9" x1="0.7" y1="60.4" x2="61.3" y2="60.4"/><line class="cls-9" x1="0.7" y1="35.1" x2="61.3" y2="35.1"/><line class="cls-9" x1="0.7" y1="26.7" x2="61.3" y2="26.7"/></g><path class="cls-7" d="M16.1,34.9a4.5,4.5,0,0,1-4.5,4.5,4.5,4.5,0,0,1,0-9A4.5,4.5,0,0,1,16.1,34.9Z"/><path class="cls-7" d="M54.5,34.9A4.5,4.5,0,1,1,50,30.4,4.5,4.5,0,0,1,54.5,34.9Z"/><path class="cls-7" d="M33.1,68.1H29.7a4.8,4.8,0,0,1-4.8-4.8V52.8h13V63.3A4.9,4.9,0,0,1,33.1,68.1Z"/><path class="cls-7" d="M50.2,26A19.2,19.2,0,0,0,31,6.8h0A19.2,19.2,0,0,0,11.8,26V40.5A19.2,19.2,0,0,0,31,59.7h0A19.2,19.2,0,0,0,50.2,40.5Z"/><path class="cls-5" d="M35,32.4v1.9a3.2,3.2,0,0,1-3.4,3.2H30.5a3.1,3.1,0,0,1-3.3-3.2V32.4"/><path class="cls-10" d="M20.8,32.2a1.8,1.8,0,0,1-1.9,1.9,1.9,1.9,0,0,1-2-1.9,2,2,0,0,1,2-2A1.9,1.9,0,0,1,20.8,32.2Z"/><path class="cls-10" d="M45.2,32.2a1.9,1.9,0,0,1-2,1.9,1.9,1.9,0,0,1-1.9-1.9,2,2,0,1,1,3.9,0Z"/><g class="cls-11"><path class="cls-12" d="M47.1,3.3c.3,3.4,0,0,0,5.4s-.2,11.7-1.4,13.2c-4.6-2.5-8.6,0-16.2-3.6a14.4,14.4,0,0,1,.2,5c-6.1,0-16.4,2.2-19.1-10-.8-3.8.1-8.6.8-12.5"/></g></g></g></g></g></svg>