<svg xmlns="http://www.w3.org/2000/svg" xmlns:xlink="http://www.w3.org/1999/xlink" viewBox="0 0 150.7 158.6"><defs><style>.cls-1,.cls-5,.cls-7{fill:none;}.cls-2{fill:#281d21;}.cls-3{isolation:isolate;}.cls-4,.cls-6{fill:#f2f2f2;}.cls-5,.cls-6,.cls-7,.cls-8{stroke:#281d21;stroke-linecap:round;stroke-linejoin:round;stroke-width:3px;}.cls-7{fill-rule:evenodd;}.cls-8{fill:#3f3434;}.cls-9{clip-path:url(#clip-path);}.cls-10{fill:#9c705d;}.cls-11{fill:#cb9d62;}.cls-12{opacity:0.2;mix-blend-mode:multiply;fill:url(#Nueva_muestra_de_motivo_2);}</style><clipPath id="clip-path"><path class="cls-1" d="M100.5,105.5c-1.6,5.9-8.3,8.5-15,6.7l-3.4-.9c-6.7-1.7-10.9-7.2-9.4-13.1l.7-2.7a1.4,1.4,0,0,1,1.8-1l24.9,6.5a1.5,1.5,0,0,1,1.1,1.8Z"/></clipPath><pattern id="Nueva_muestra_de_motivo_2" data-name="Nueva muestra de motivo 2" width="4" height="4" patternTransform="translate(0 24.9)" patternUnits="userSpaceOnUse" viewBox="0 0 4 4"><rect class="cls-1" width="4" height="4"/><rect class="cls-2" width="2" height="2"/><rect class="cls-2" x="2" y="2" width="2" height="2"/></pattern></defs><title>Asset 2</title><g class="cls-3"><g id="Layer_2" data-name="Layer 2"><g id="Information_icon" data-name="Information icon"><g id="cup"><path class="cls-2" d="M88.8,47c4.9,3.7,7.9,6.2,8.1,11.5a10.5,10.5,0,0,1-.3,3.6l7.4-.2a15.1,15.1,0,0,0,.2-3.7c-.3-9-6.3-13.4-11.1-17S85.2,35,85,29.8C84.6,19,98.5,18.3,99.1,18.3a3.7,3.7,0,0,0-.2-7.3c-7.6.3-21.7,4.6-21.2,19C78,39,84,43.5,88.8,47Z"/><path class="cls-2" d="M104.1,32.4c3.7,5,5.9,8.3,4.5,13.3a15.9,15.9,0,0,1-1.3,3.5l7.1,1.8a26.8,26.8,0,0,0,1.3-3.4c2.3-8.7-2.2-14.7-5.7-19.5s-5.9-8.2-4.5-13.3c2.7-10.4,16.3-7,16.8-6.9a3.6,3.6,0,1,0,1.9-7C116.9-1,102.1-1,98.4,12.9,96.1,21.7,100.6,27.6,104.1,32.4Z"/><path class="cls-2" d="M129.8,49.1c8.7-11.5-.5-23.1-6.5-27.6a3.6,3.6,0,1,0-4.4,5.8c.5.3,11.5,8.9,5.1,17.5C120.9,49,124.4,56.4,129.8,49.1Z"/><path class="cls-4" d="M48,39.6A37.1,37.1,0,1,0,74.4,84.9,37.2,37.2,0,0,0,48,39.6ZM59.2,80.9A21.4,21.4,0,1,1,44,54.8,21.4,21.4,0,0,1,59.2,80.9Z"/><path class="cls-5" d="M48,39.6A37.1,37.1,0,1,0,74.4,84.9,37.2,37.2,0,0,0,48,39.6ZM59.2,80.9A21.4,21.4,0,1,1,44,54.8,21.4,21.4,0,0,1,59.2,80.9Z"/><path class="cls-6" d="M129.5,133.7A31.3,31.3,0,0,1,91.2,156l-36.3-9.5a31.3,31.3,0,0,1-22.3-38.2L52,34.6a10.9,10.9,0,0,1,13.3-7.8L141,46.7a10.9,10.9,0,0,1,7.8,13.4Z"/><path class="cls-7" d="M107.5,89c1.5-5.2,6.3-8.9,12.5-7.2s8.5,7,7.2,12.4"/><path class="cls-8" d="M103.3,105.2c-2.1,7.9-9.9,11.6-17.9,9.5l-4.5-1.2c-8-2.1-12.6-9-10.5-17l.9-3.5a2,2,0,0,1,2.5-1.4l29,7.6a1.9,1.9,0,0,1,1.4,2.4Z"/><g class="cls-9"><circle class="cls-10" cx="81.6" cy="117.5" r="14.7"/></g><path class="cls-7" d="M54.3,75c1.6-5.2,6.3-8.8,12.5-7.2s8.5,7,7.3,12.4"/><path class="cls-11" d="M63.7,97.6a11.4,11.4,0,1,1-8.1-13.9A11.3,11.3,0,0,1,63.7,97.6Z"/><path class="cls-12" d="M76.2,138.3c-21.1-5.6-36.4-18.1-43.8-32.7l-.7,2.4c-4.4,16.7,6.3,34.9,23,39.3L91,156.9c16.7,4.4,33.2-6.7,37.6-23.4l.3-1.1C117.1,141.2,96.4,143.6,76.2,138.3Z"/><polygon class="cls-12" points="45.8 54.6 38.7 52.8 42.4 38.7 49.5 40.5 45.8 54.6"/><polygon class="cls-12" points="31 111 23.9 109.1 27.6 95 34.7 96.9 31 111"/><path class="cls-11" d="M130.6,115.2a11.4,11.4,0,1,1-8.1-13.9A11.3,11.3,0,0,1,130.6,115.2Z"/></g></g></g></g></svg>