<svg xmlns="http://www.w3.org/2000/svg" xmlns:xlink="http://www.w3.org/1999/xlink" viewBox="0 0 237 230.9"><defs><style>.cls-1,.cls-6{fill:none;}.cls-2{fill:#281d21;}.cls-3{isolation:isolate;}.cls-4,.cls-5,.cls-8{fill:#f2f2f2;}.cls-4,.cls-6,.cls-7{stroke:#281d21;}.cls-4,.cls-5,.cls-6,.cls-7{stroke-linecap:round;stroke-linejoin:round;stroke-width:3px;}.cls-5{stroke:#cecece;}.cls-7{fill:#95bca7;}.cls-9{opacity:0.2;mix-blend-mode:multiply;fill:url(#Nueva_muestra_de_motivo_2);}</style><pattern id="Nueva_muestra_de_motivo_2" data-name="Nueva muestra de motivo 2" width="4" height="4" patternTransform="translate(0 24.9)" patternUnits="userSpaceOnUse" viewBox="0 0 4 4"><rect class="cls-1" width="4" height="4"/><rect class="cls-2" width="2" height="2"/><rect class="cls-2" x="2" y="2" width="2" height="2"/></pattern></defs><title>Asset 2</title><g class="cls-3"><g id="Layer_2" data-name="Layer 2"><g id="Information_icon" data-name="Information icon"><g id="imac"><rect class="cls-4" x="89.6" y="132.2" width="57.7" height="88.13" rx="9.3" ry="9.3"/><rect class="cls-4" x="62.3" y="208.1" width="112.4" height="21.27" rx="9.3" ry="9.3"/><rect class="cls-4" x="1.5" y="1.5" width="234" height="170.18" rx="18.2" ry="18.2"/><circle class="cls-5" cx="64.8" cy="68.7" r="38"/><circle class="cls-5" cx="171.2" cy="68.7" r="38"/><path class="cls-6" d="M130.9,70.9v6.2c0,6.1-5,10.2-11.1,10.2h-3.5c-6,0-10.7-4.1-10.7-10.2V70.9"/><circle class="cls-2" cx="64.8" cy="68.7" r="7.7"/><circle class="cls-2" cx="171.2" cy="68.7" r="7.7"/><path class="cls-7" d="M235.5,162.3a18.3,18.3,0,0,1-18.2,18.2H19.7A18.3,18.3,0,0,1,1.5,162.3V144.1h234Z"/><path class="cls-8" d="M125.5,163.5a7,7,0,0,1-14,0,7,7,0,0,1,14,0Z"/><rect class="cls-9" x="89.4" y="183.4" width="57.7" height="14.07"/></g></g></g></g></svg>