<svg xmlns="http://www.w3.org/2000/svg" xmlns:xlink="http://www.w3.org/1999/xlink" viewBox="0 0 72.8 96.6"><defs><style>.cls-1,.cls-6,.cls-8{fill:none;}.cls-2{fill:#281d21;}.cls-3{isolation:isolate;}.cls-4{fill:#f2f2f2;}.cls-4,.cls-6,.cls-8,.cls-9{stroke:#281d21;stroke-linecap:round;stroke-linejoin:round;stroke-width:1.5px;}.cls-5{clip-path:url(#clip-path);}.cls-7{opacity:0.2;mix-blend-mode:multiply;fill:url(#Nueva_muestra_de_motivo_2);}.cls-8{fill-rule:evenodd;}.cls-9{fill:#3f3434;}.cls-10{clip-path:url(#clip-path-2);}.cls-11{fill:#95bca7;}</style><clipPath id="clip-path"><rect class="cls-1" x="7" y="12.7" width="59.5" height="28.83" rx="4.8" ry="4.8"/></clipPath><pattern id="Nueva_muestra_de_motivo_2" data-name="Nueva muestra de motivo 2" width="4" height="4" patternTransform="translate(0 24.9)" patternUnits="userSpaceOnUse" viewBox="0 0 4 4"><rect class="cls-1" width="4" height="4"/><rect class="cls-2" width="2" height="2"/><rect class="cls-2" x="2" y="2" width="2" height="2"/></pattern><clipPath id="clip-path-2"><path class="cls-1" d="M43,12.9c0,2.6-2.6,4.5-5.6,4.5H35.9c-3,0-5.5-1.9-5.5-4.5V11.7a.7.7,0,0,1,.7-.7H42.3a.7.7,0,0,1,.7.7Z"/></clipPath></defs><title>Asset 6</title><g class="cls-3"><g id="Layer_2" data-name="Layer 2"><g id="Information_icon" data-name="Information icon"><g id="mail"><rect class="cls-4" x="6.2" y="0.9" width="61" height="41.63" rx="5.3" ry="5.3"/><g class="cls-5"><path class="cls-6" d="M69.3,61.2,43.5,93A9.4,9.4,0,0,1,30,93L3.5,61.2a9.5,9.5,0,0,1,0-13.4L30,17.2a9.6,9.6,0,0,1,13.5,0L69.3,47.8A9.5,9.5,0,0,1,69.3,61.2Z"/></g><polygon class="cls-7" points="24.5 22.2 9.3 39.6 6.5 35.6 6.5 4.1 24.5 4.1 24.5 22.2"/><polygon class="cls-7" points="49.2 22.2 64.4 39.6 67.3 35.6 67.3 4.1 49.2 4.1 49.2 22.2"/><path class="cls-4" d="M7,6.2,29.3,28.5a10.6,10.6,0,0,0,14.9,0L66.5,6.2A3.2,3.2,0,0,0,64.3.8H9.2A3.2,3.2,0,0,0,7,6.2Z"/><path class="cls-8" d="M49.1,12a2.3,2.3,0,0,1,2.4-2.3A2.3,2.3,0,0,1,53.9,12"/><path class="cls-9" d="M44.2,12.4c0,3.6-2.9,6-6.5,6H35.6c-3.6,0-6.3-2.4-6.3-6V10.8a.9.9,0,0,1,.9-.9H43.3a.9.9,0,0,1,.9.9Z"/><g class="cls-10"><path class="cls-11" d="M42.8,20a6.5,6.5,0,0,1-12.9,0,6.5,6.5,0,0,1,12.9,0Z"/></g><path class="cls-8" d="M19.6,12a2.3,2.3,0,0,1,2.3-2.3A2.2,2.2,0,0,1,24.3,12"/></g></g></g></g></svg>