<svg xmlns="http://www.w3.org/2000/svg" xmlns:xlink="http://www.w3.org/1999/xlink" viewBox="0 0 63.4 78"><defs><style>.cls-1,.cls-5,.cls-7{fill:none;}.cls-12,.cls-2{fill:#281d21;}.cls-3{isolation:isolate;}.cls-4{fill:#95bca7;}.cls-11,.cls-5,.cls-8,.cls-9{stroke:#281d21;stroke-linecap:round;stroke-linejoin:round;}.cls-11,.cls-5,.cls-7,.cls-8,.cls-9{stroke-width:1.5px;}.cls-6{clip-path:url(#clip-path);}.cls-7{stroke:#779e88;stroke-miterlimit:10;}.cls-8{fill:#c98f63;}.cls-9{fill:#f2f2f2;}.cls-10{opacity:0.2;mix-blend-mode:multiply;fill:url(#Nueva_muestra_de_motivo_2);}.cls-11{fill:#cb9d62;}.cls-12{fill-rule:evenodd;}.cls-13{clip-path:url(#clip-path-2);}</style><clipPath id="clip-path"><path class="cls-1" d="M31.7,14.7A29.8,29.8,0,1,0,61.5,44.5,29.7,29.7,0,0,0,31.7,14.7Z"/></clipPath><pattern id="Nueva_muestra_de_motivo_2" data-name="Nueva muestra de motivo 2" width="4" height="4" patternTransform="translate(0 24.9)" patternUnits="userSpaceOnUse" viewBox="0 0 4 4"><rect class="cls-1" width="4" height="4"/><rect class="cls-2" width="2" height="2"/><rect class="cls-2" x="2" y="2" width="2" height="2"/></pattern><clipPath id="clip-path-2"><path class="cls-1" d="M50,26.4A18.4,18.4,0,0,0,31.6,8.1h0A18.3,18.3,0,0,0,13.2,26.4V40.5A18.4,18.4,0,0,0,31.6,58.9h0A18.4,18.4,0,0,0,50,40.5Z"/></clipPath></defs><title>Asset 3</title><g class="cls-3"><g id="Layer_2" data-name="Layer 2"><g id="Information_icon" data-name="Information icon"><g id="woman"><path class="cls-4" d="M31.7,13.5a31,31,0,1,0,31,31A30.9,30.9,0,0,0,31.7,13.5Z"/><path class="cls-5" d="M31.7,13.5a31,31,0,1,0,31,31A30.9,30.9,0,0,0,31.7,13.5Z"/><g class="cls-6"><line class="cls-7" x1="0.7" y1="44.4" x2="62.5" y2="44.4"/><line class="cls-7" x1="0.7" y1="53" x2="62.5" y2="53"/><line class="cls-7" x1="0.7" y1="61.6" x2="62.5" y2="61.6"/><line class="cls-7" x1="0.7" y1="35.8" x2="62.5" y2="35.8"/><line class="cls-7" x1="0.7" y1="27.2" x2="62.5" y2="27.2"/><path class="cls-8" d="M51.1,41.3A19.5,19.5,0,0,0,31.6,21.8h0A19.5,19.5,0,0,0,12,41.3V56.2A19.5,19.5,0,0,0,31.6,75.7h0A19.5,19.5,0,0,0,51.1,56.2Z"/><polygon class="cls-9" points="55.8 76.5 8.1 76.5 25.3 62.4 38.6 62.4 55.8 76.5"/><polygon class="cls-10" points="55.8 78 8.1 78 25.3 63.9 38.6 63.9 55.8 78"/></g><path class="cls-9" d="M16.5,35.6a4.7,4.7,0,0,1-4.6,4.6,4.6,4.6,0,0,1,0-9.2A4.7,4.7,0,0,1,16.5,35.6Z"/><path class="cls-9" d="M55.5,35.6A4.6,4.6,0,1,1,51,31,4.6,4.6,0,0,1,55.5,35.6Z"/><path class="cls-11" d="M13.4,42.6a3.1,3.1,0,1,1-3.1-3.1A3.1,3.1,0,0,1,13.4,42.6Z"/><path class="cls-11" d="M56.4,42.6a3.1,3.1,0,1,1-3.1-3.1A3.1,3.1,0,0,1,56.4,42.6Z"/><path class="cls-9" d="M33.7,67.1H30.3a4.9,4.9,0,0,1-5-4.9V51.4H38.6V62.2A4.9,4.9,0,0,1,33.7,67.1Z"/><path class="cls-9" d="M51.1,26.4A19.5,19.5,0,0,0,31.6,6.9h0A19.6,19.6,0,0,0,12,26.4V41.3A19.6,19.6,0,0,0,31.6,60.9h0A19.5,19.5,0,0,0,51.1,41.3Z"/><path class="cls-5" d="M35.7,41.9v2a3.3,3.3,0,0,1-3.5,3.2H31.1a3.2,3.2,0,0,1-3.4-3.2v-2"/><path class="cls-12" d="M21.2,37.5a2,2,0,1,1-2-2A2,2,0,0,1,21.2,37.5Z"/><path class="cls-12" d="M46.1,37.5a2,2,0,1,1-2-2A2,2,0,0,1,46.1,37.5Z"/><g class="cls-13"><path class="cls-11" d="M62.3,4.3c.3,4.9,0,0,0,7.6,0,9.3-.3,16.5-2.1,18.6-6.4-3.5-12,0-22.6-5.1a21.5,21.5,0,0,1,.2,7.1c-8.6,0-27.1,4.2-30.9-13C5.7,14.1,11.1,6.3,12,.8"/></g></g></g></g></g></svg>