<svg xmlns="http://www.w3.org/2000/svg" xmlns:xlink="http://www.w3.org/1999/xlink" viewBox="0 0 56.4 53"><defs><style>.cls-1,.cls-5{fill:none;}.cls-2{fill:#281d21;}.cls-3{isolation:isolate;}.cls-4{fill:#95bca7;}.cls-4,.cls-5,.cls-6{stroke:#281d21;stroke-linecap:round;stroke-linejoin:round;stroke-width:1.5px;}.cls-6,.cls-9{fill:#f2f2f2;}.cls-7{opacity:0.2;mix-blend-mode:multiply;}.cls-7,.cls-8{fill:url(#Nueva_muestra_de_motivo_2);}.cls-8{opacity:0.3;mix-blend-mode:overlay;}</style><pattern id="Nueva_muestra_de_motivo_2" data-name="Nueva muestra de motivo 2" width="4" height="4" patternTransform="translate(0 24.9)" patternUnits="userSpaceOnUse" viewBox="0 0 4 4"><rect class="cls-1" width="4" height="4"/><rect class="cls-2" width="2" height="2"/><rect class="cls-2" x="2" y="2" width="2" height="2"/></pattern></defs><title>Asset 5</title><g class="cls-3"><g id="Layer_2" data-name="Layer 2"><g id="Information_icon" data-name="Information icon"><g id="music"><circle class="cls-4" cx="10.9" cy="42.1" r="10.2"/><line class="cls-5" x1="20.9" y1="39.6" x2="20.9" y2="15.6"/><circle class="cls-4" cx="45.4" cy="42.1" r="10.2"/><line class="cls-5" x1="55.6" y1="42.1" x2="55.6" y2="11.4"/><path class="cls-6" d="M55.6,17.3,20.9,19.8V5.8a2.6,2.6,0,0,1,2.6-2.6L53.1.8a2.5,2.5,0,0,1,2.5,2.5Z"/><path class="cls-7" d="M55.6,17.3,20.9,19.8V17.4a2.6,2.6,0,0,1,2.6-2.6l29.6-2.5a2.6,2.6,0,0,1,2.5,2.6Z"/><path class="cls-8" d="M10.9,46.2A12.4,12.4,0,0,1,.8,40.9v1.2a10.2,10.2,0,0,0,20.3,0,4.9,4.9,0,0,0-.1-1.2A12.2,12.2,0,0,1,10.9,46.2Z"/><path class="cls-8" d="M45.7,46.2a12.2,12.2,0,0,1-10.1-5.3,4.9,4.9,0,0,0-.1,1.2,10.2,10.2,0,0,0,20.3,0V40.9A12.5,12.5,0,0,1,45.7,46.2Z"/><path class="cls-9" d="M10.8,37.8a2,2,0,0,1-1.9,1.9A2,2,0,0,1,7,37.8a1.9,1.9,0,0,1,3.8,0Z"/><path class="cls-9" d="M45.5,37.8a1.9,1.9,0,0,1-1.9,1.9,2,2,0,0,1-1.9-1.9,1.9,1.9,0,0,1,1.9-1.9A1.8,1.8,0,0,1,45.5,37.8Z"/></g></g></g></g></svg>