<svg xmlns="http://www.w3.org/2000/svg" xmlns:xlink="http://www.w3.org/1999/xlink" viewBox="0 0 59.5 50.9"><defs><style>.cls-1,.cls-5,.cls-7{fill:none;}.cls-2{fill:#281d21;}.cls-3{isolation:isolate;}.cls-4{fill:#e2e2e2;}.cls-12,.cls-5,.cls-6,.cls-7,.cls-8{stroke:#281d21;stroke-linecap:round;stroke-linejoin:round;stroke-width:1.5px;}.cls-6{fill:#f2f2f2;}.cls-7{fill-rule:evenodd;}.cls-8{fill:#3f3434;}.cls-9{clip-path:url(#clip-path);}.cls-10{fill:#9c705d;}.cls-11{opacity:0.2;mix-blend-mode:multiply;fill:url(#Nueva_muestra_de_motivo_2);}.cls-12{fill:#95bca7;}</style><clipPath id="clip-path"><path class="cls-1" d="M37.6,27.4c0,3.1-3,5.3-6.5,5.3H29.3c-3.5,0-6.3-2.2-6.3-5.3V26a.8.8,0,0,1,.8-.7h13a.7.7,0,0,1,.8.7Z"/></clipPath><pattern id="Nueva_muestra_de_motivo_2" data-name="Nueva muestra de motivo 2" width="4" height="4" patternTransform="translate(0 24.9)" patternUnits="userSpaceOnUse" viewBox="0 0 4 4"><rect class="cls-1" width="4" height="4"/><rect class="cls-2" width="2" height="2"/><rect class="cls-2" x="2" y="2" width="2" height="2"/></pattern></defs><title>Asset 1</title><g class="cls-3"><g id="Layer_2" data-name="Layer 2"><g id="Information_icon" data-name="Information icon"><g id="folder"><path class="cls-4" d="M50.4,3.9H26.1V3.3A2.5,2.5,0,0,0,23.6.8H11.5A2.5,2.5,0,0,0,9,3.3v.6H7.6a5.1,5.1,0,0,0-5,5V38.2a5.1,5.1,0,0,0,5,5H50.4a5,5,0,0,0,5-5V8.9A5,5,0,0,0,50.4,3.9Z"/><path class="cls-5" d="M50.4,3.9H26.1V3.3A2.5,2.5,0,0,0,23.6.8H11.5A2.5,2.5,0,0,0,9,3.3v.6H7.6a5.1,5.1,0,0,0-5,5V38.2a5.1,5.1,0,0,0,5,5H50.4a5,5,0,0,0,5-5V8.9A5,5,0,0,0,50.4,3.9Z"/><path class="cls-6" d="M57.6,47.1a3.1,3.1,0,0,1-3.1,3.1H5.8a3.1,3.1,0,0,1-3.2-3.1V15.2a5.1,5.1,0,0,1,5-5h45a5.1,5.1,0,0,1,5,5Z"/><path class="cls-7" d="M43.3,23.8A2.8,2.8,0,0,1,46.1,21a2.7,2.7,0,0,1,2.7,2.8"/><path class="cls-7" d="M10.9,23.8A2.8,2.8,0,0,1,13.7,21a2.7,2.7,0,0,1,2.7,2.8"/><path class="cls-8" d="M38.9,26.9c0,4.2-3.3,7-7.5,7H29c-4.2,0-7.3-2.8-7.3-7V25a1,1,0,0,1,1-1H37.9a1,1,0,0,1,1,1Z"/><g class="cls-9"><path class="cls-10" d="M37.4,35.7a7.5,7.5,0,1,1-7.5-7.4A7.5,7.5,0,0,1,37.4,35.7Z"/></g><rect class="cls-11" x="2.4" y="41.9" width="55.3" height="5.33"/><rect class="cls-11" x="2.4" y="7.3" width="53" height="3.08"/><rect class="cls-12" x="0.8" y="39.6" width="58" height="4.67"/></g></g></g></g></svg>