<svg xmlns="http://www.w3.org/2000/svg" viewBox="0 0 37.7 68.1"><defs><style>.cls-1{fill:#f2f2f2;}.cls-1,.cls-2,.cls-4{stroke:#281d21;stroke-linecap:round;stroke-linejoin:round;stroke-width:1.5px;}.cls-2{fill:#95bca7;}.cls-3,.cls-5{fill:#281d21;}.cls-4{fill:none;}.cls-5{fill-rule:evenodd;}</style></defs><title>Asset 4</title><g id="Layer_2" data-name="Layer 2"><g id="Information_icon" data-name="Information icon"><g id="mobile"><rect class="cls-1" x="0.8" y="3.2" width="36.2" height="60.31" rx="6.5" ry="6.5"/><path class="cls-2" d="M36.7,60.9a6.5,6.5,0,0,1-6.5,6.5H7.3A6.5,6.5,0,0,1,.8,60.9V54.4H36.7Z"/><path class="cls-2" d="M.8,7.2A6.5,6.5,0,0,1,7.3.8H30.2a6.5,6.5,0,0,1,6.5,6.4v2H.8Z"/><path class="cls-1" d="M21.3,61.3a2.9,2.9,0,0,1-2.9,2.9,2.9,2.9,0,0,1,0-5.8A2.9,2.9,0,0,1,21.3,61.3Z"/><rect class="cls-3" x="13.9" y="4.4" width="9.8" height="1.51" rx="0.7" ry="0.7"/><path class="cls-4" d="M22.9,29.2V31a3,3,0,0,1-3.2,2.9h-1A3,3,0,0,1,15.5,31V29.2"/><path class="cls-5" d="M9.2,29.3A1.7,1.7,0,0,1,7.6,31a1.7,1.7,0,1,1,0-3.4A1.7,1.7,0,0,1,9.2,29.3Z"/><path class="cls-5" d="M32.4,29.3A1.7,1.7,0,0,1,30.7,31a1.7,1.7,0,0,1,0-3.4A1.7,1.7,0,0,1,32.4,29.3Z"/></g></g></g></svg>