<svg xmlns="http://www.w3.org/2000/svg" xmlns:xlink="http://www.w3.org/1999/xlink" viewBox="0 0 211.3 167.6"><defs><style>.cls-1,.cls-5,.cls-7{fill:none;}.cls-11,.cls-2{fill:#281d21;}.cls-3{isolation:isolate;}.cls-4{fill:#95bca7;}.cls-5,.cls-7,.cls-8{stroke:#281d21;stroke-linecap:round;stroke-linejoin:round;stroke-width:3px;}.cls-6{fill:#f2f2f2;}.cls-11,.cls-7{fill-rule:evenodd;}.cls-8{fill:#3f3434;}.cls-9{clip-path:url(#clip-path);}.cls-10{fill:#cb9d62;}.cls-12{fill:#779e88;}.cls-13{clip-path:url(#clip-path-2);}.cls-14{fill:#5f826d;opacity:0.5;}.cls-15{opacity:0.3;mix-blend-mode:overlay;fill:url(#Nueva_muestra_de_motivo_2);}</style><clipPath id="clip-path"><path class="cls-1" d="M125.8,82.1c1.9,7.8-4.3,14.9-13,17l-4.5,1.1c-8.7,2.2-17-1.4-18.9-9.2l-.9-3.5A1.9,1.9,0,0,1,90,85.2l32.5-8a1.9,1.9,0,0,1,2.4,1.4Z"/></clipPath><clipPath id="clip-path-2"><path class="cls-1" d="M179,62.6a76,76,0,1,0-55.7,91.9A75.9,75.9,0,0,0,179,62.6Z"/></clipPath><pattern id="Nueva_muestra_de_motivo_2" data-name="Nueva muestra de motivo 2" width="4" height="4" patternTransform="translate(0 24.9)" patternUnits="userSpaceOnUse" viewBox="0 0 4 4"><rect class="cls-1" width="4" height="4"/><rect class="cls-2" width="2" height="2"/><rect class="cls-2" x="2" y="2" width="2" height="2"/></pattern></defs><title>Asset 1</title><g class="cls-3"><g id="Layer_2" data-name="Layer 2"><g id="photo_box" data-name="photo box"><g id="planet"><path class="cls-4" d="M182.1,61.9A79.2,79.2,0,1,0,124,157.6,79.2,79.2,0,0,0,182.1,61.9Z"/><path class="cls-5" d="M182.1,61.9A79.2,79.2,0,1,0,124,157.6,79.2,79.2,0,0,0,182.1,61.9Z"/><path class="cls-6" d="M125.6,24a7.8,7.8,0,0,0-5.5-5.7h0A63.9,63.9,0,0,0,43.5,63h.1a7,7,0,0,0-.1,3.8A7.8,7.8,0,0,0,53,72.5a7.9,7.9,0,0,0,5.7-5.2h0a48.5,48.5,0,0,1,57.7-33.7h0a6.5,6.5,0,0,0,3.4,0A8,8,0,0,0,125.6,24ZM59.1,107.9a7.9,7.9,0,0,0-5.7,9.6,7.8,7.8,0,0,0,15.2-3.8A7.9,7.9,0,0,0,59.1,107.9Z"/><path class="cls-7" d="M140.2,69.9a7,7,0,0,1,5.2-8.6c4.3-1,7.5,1.5,8.5,5.2"/><path class="cls-8" d="M128.8,80c2.6,10.4-4.1,19.5-14.5,22.1l-6,1.4c-10.4,2.6-20.1-2.5-22.6-13l-1.2-4.6a2.8,2.8,0,0,1,2-3.2l38-9.3a2.7,2.7,0,0,1,3.2,1.9Z"/><g class="cls-9"><path class="cls-10" d="M130.3,103A19.2,19.2,0,1,1,107,88.9,19.2,19.2,0,0,1,130.3,103Z"/></g><path class="cls-11" d="M72.1,83.7a7.6,7.6,0,1,1-9.2-5.5A7.6,7.6,0,0,1,72.1,83.7Z"/><circle class="cls-12" cx="147.1" cy="87.8" r="5.8"/><path class="cls-12" d="M127.2,119.3a5.7,5.7,0,1,1-6.9-4.2A5.8,5.8,0,0,1,127.2,119.3Z"/><circle class="cls-12" cx="101.9" cy="139.2" r="10.3"/><circle class="cls-12" cx="145.6" cy="126.3" r="10.3"/><path class="cls-12" d="M95,116a5.6,5.6,0,0,1-4.1,6.8,5.6,5.6,0,1,1-2.7-10.9A5.6,5.6,0,0,1,95,116Z"/><path class="cls-12" d="M165.9,107.3a5.4,5.4,0,0,1-4,6.5,5.4,5.4,0,0,1-2.5-10.5A5.4,5.4,0,0,1,165.9,107.3Z"/><path class="cls-12" d="M76.1,104.7a3.2,3.2,0,0,1-2.4,3.9,3.1,3.1,0,0,1-3.8-2.3,3.2,3.2,0,0,1,2.3-3.9A3.2,3.2,0,0,1,76.1,104.7Z"/><path class="cls-12" d="M82.1,135.9a4.6,4.6,0,0,1-3.4,5.6,4.6,4.6,0,0,1-5.5-3.4,4.6,4.6,0,0,1,3.4-5.6A4.6,4.6,0,0,1,82.1,135.9Z"/><g class="cls-13"><path class="cls-14" d="M78.8,155.3c-33.9,8.3-63.9,7.1-72.2-10.9-5.8-12.6,6.5-11.8,9.8-4.6,6.7,14.6,51.8,13.6,105.8-11.3s84-58.5,77.3-73.2c-3.2-6.8,4.1-16.8,9.8-4.5,12.2,26.5-33.4,64.8-82.6,87.5A274.5,274.5,0,0,1,78.8,155.3Z"/><path class="cls-15" d="M122.2,128.5c-24.9,11.5-47.8,17.9-66,20A87.4,87.4,0,0,0,197.5,70.1C189,86.9,162.1,110.1,122.2,128.5Z"/></g><path class="cls-2" d="M74.1,136.4c-33.8,8.2-63.8,7.1-72.2-11-5.8-12.5,1.6-29.5,20.9-47.6l1.6,6.6c-1.1,1.1,3.6,3.4,2.6,4.5-12.9,13-18.6,24.8-15.2,32,6.7,14.6,51.8,13.5,105.8-11.3s84-58.6,77.2-73.2c-3.1-6.9-15-10.3-32.1-9.3-1.7.1-3.3-5.9-5-5.7l-1.2-4.7c25.4-2.5,42.5,2.9,48.2,15.2,12.2,26.4-33.5,64.8-82.6,87.5A272.6,272.6,0,0,1,74.1,136.4Z"/></g></g></g></g></svg>